<svg width="210" height="90" viewBox="0 0 210 90" fill="none" xmlns="http://www.w3.org/2000/svg">
<g clip-path="url(#clip0_1313_25174)">
<path d="M170 55.0977C170 51.834 168.377 48.8485 166.942 46.2153C165.716 43.9715 164.621 41.9317 164.904 40.4111C165.112 39.3171 165.904 38.6866 167.131 38.6124C167.169 38.6124 167.207 38.5939 167.244 38.5939C167.301 38.5753 167.358 38.5382 167.414 38.5011C167.471 38.464 167.509 38.4084 167.528 38.3528C167.528 38.3342 167.546 38.3342 167.546 38.3157L168.15 36.7766C168.207 36.6097 168.226 36.4984 168.169 36.3872C168.132 36.313 168.075 36.2388 167.981 36.1646C167.867 36.0719 167.679 35.9977 167.433 35.9236C167.093 35.8123 166.659 35.7381 166.263 35.7381C164.489 35.7381 162.318 36.313 160.431 40.9303C160.356 41.1158 156.713 50.3876 156.6 50.6843C156.147 51.7784 155.184 53.095 153.146 53.095C152.259 53.095 151.542 52.7612 151.145 52.2049C151.07 52.0936 151.013 51.9824 150.957 51.8711C150.806 51.5002 150.749 51.0552 150.843 50.573C150.881 50.4061 150.919 50.2207 150.976 50.0353C151.07 49.72 151.202 49.3677 151.353 49.0154C152.75 45.5106 157.713 33.0308 159.242 29.1922C159.431 28.7101 159.167 28.3207 158.638 28.3207H156.883C156.694 28.3207 156.487 28.3763 156.317 28.469C155.996 28.6174 155.732 28.8955 155.6 29.1922C154.92 30.8797 153.958 33.3275 152.938 35.905C152.146 37.8892 151.334 39.9475 150.579 41.8204C150.353 41.4496 150.088 41.0972 149.805 40.7635C149.503 40.4297 149.183 40.1144 148.843 39.8363C147.371 38.6495 145.502 38.0005 143.445 38.0005C140.916 38.0005 138.481 39.0018 136.575 40.6337C136.5 40.6893 136.443 40.7635 136.367 40.8191C136.311 40.8562 136.273 40.9118 136.216 40.9489C134.971 42.0986 133.989 43.5265 133.385 45.1027C133.385 45.1212 133.367 45.1398 133.367 45.1768C133.291 45.3808 133.234 45.5848 133.159 45.8073C133.046 46.1967 132.951 46.5862 132.895 46.9941C132.838 47.365 132.8 47.7359 132.781 48.1067C132.744 49.1823 132.914 50.2393 133.253 51.2035C133.083 51.4817 132.857 51.7413 132.612 51.9824C131.913 52.6314 130.988 53.0579 130.026 53.1321C129.932 53.1321 129.856 53.1321 129.762 53.1321C129.384 53.1321 129.026 53.0579 128.705 52.9466C128.308 52.7983 127.969 52.5572 127.742 52.242C127.308 51.63 127.308 50.7399 127.705 49.72C127.799 49.4604 128.403 47.8842 128.95 46.4749C129.365 45.3808 129.743 44.3609 129.818 44.1569C129.856 44.0457 129.932 43.8788 129.988 43.6748C130.083 43.2854 130.139 42.7476 129.875 42.1913C129.762 41.9688 129.63 41.7834 129.479 41.6165C129.177 41.3012 128.78 41.1158 128.403 40.9674C128.252 40.9118 128.101 40.8562 127.95 40.8191C127.686 40.7449 127.403 40.6336 127.082 40.5038C127.063 40.5038 127.063 40.4853 127.044 40.4853C126.515 40.2628 123.968 39.0945 123.968 36.8693C123.968 36.8137 123.968 36.758 123.968 36.7209C123.968 36.7024 123.968 36.6839 123.968 36.6653C123.968 36.6468 123.968 36.6097 123.968 36.5911C123.93 36.2573 123.817 36.0534 123.666 35.9421C123.647 35.9421 123.647 35.9236 123.628 35.9236C123.628 35.9236 123.628 35.9236 123.609 35.9236C123.59 35.905 123.571 35.905 123.552 35.8865C123.552 35.8865 123.552 35.8865 123.533 35.8865C123.533 35.8865 123.533 35.8865 123.515 35.8865C123.496 35.8865 123.496 35.8679 123.477 35.8679C123.382 35.8308 123.288 35.8123 123.175 35.8123H121.439C121.08 35.8123 120.684 35.9977 120.419 36.2759C120.306 36.3872 120.212 36.5355 120.155 36.6839C119.778 37.6296 119.325 38.7607 118.853 39.9661C117.192 44.1569 115.21 49.1823 114.644 50.6101C114.625 50.6658 114.606 50.7214 114.587 50.777C114.134 51.8711 113.172 53.1877 111.115 53.1877C110.228 53.1877 109.492 52.8539 109.114 52.2976C108.888 51.9638 108.774 51.5373 108.793 51.0366C108.812 50.6472 108.907 50.2207 109.076 49.7757C109.435 48.8485 110.209 46.9199 111.02 44.8801C111.794 42.9331 112.606 40.8562 113.172 39.4469C113.361 38.9647 113.096 38.5753 112.568 38.5753H110.813H110.643C110.53 38.5753 110.398 38.5938 110.265 38.6309C110.247 38.6309 110.247 38.6309 110.228 38.6309C109.812 38.7422 109.397 39.0204 109.152 39.3171C108.246 40.3926 107.076 41.2641 105.792 41.8946C104.509 42.5251 103.131 42.9331 101.81 43.0814C101.621 42.5993 101.376 42.1171 101.074 41.6721C101.055 41.6536 101.055 41.635 101.036 41.6165C100.848 41.3383 100.659 41.0787 100.432 40.8191C98.8658 39.0389 96.6199 38.0561 94.072 38.0561C92.7131 38.0561 91.3919 38.3528 90.1463 38.872C90.7691 37.2958 91.3919 35.701 91.977 34.199C92.6942 32.3632 93.3736 30.6572 93.921 29.2479C94.0153 29.0253 93.9965 28.8399 93.921 28.673C93.8266 28.4876 93.619 28.3763 93.3359 28.3763H93.317H91.5807H91.5618C91.3542 28.3763 91.1277 28.4505 90.9201 28.5617C90.6747 28.6915 90.4671 28.877 90.3539 29.0995C90.335 29.1551 90.2973 29.1922 90.2784 29.2479C88.0324 34.8666 84.4465 43.9715 82.7479 48.3293C82.276 49.5161 81.9552 50.3691 81.8231 50.6843C81.3701 51.7784 80.4075 53.095 78.3692 53.095C78.1805 53.095 78.0106 53.0764 77.8596 53.0579C77.2179 52.9466 76.6706 52.6685 76.3686 52.2049C76.312 52.1122 76.2554 52.0194 76.1988 51.9082C76.0289 51.5373 75.9723 51.0737 76.0666 50.573C76.1044 50.332 76.2365 49.9426 76.3875 49.5531C76.5951 48.9968 76.8027 48.4591 76.8027 48.4591C76.8027 48.4591 77.5577 46.5676 78.6334 43.8232C78.7467 43.5265 78.8788 43.2112 79.0109 42.8774C79.0298 42.8403 79.0487 42.8033 79.0487 42.7662C80.7095 38.5753 82.9366 32.9195 84.5408 28.8399C85.1825 27.1895 85.7299 25.7987 86.1073 24.8716C86.2961 24.3894 86.0318 24 85.5034 24H83.7482C83.2197 24 82.6535 24.3894 82.4648 24.8716C82.2571 25.3908 80.4076 30.1009 78.3315 35.3673C75.6514 42.1542 72.6128 49.8684 72.292 50.7029C72.2165 50.8697 72.141 51.0366 72.0466 51.2035C71.7635 51.7413 71.3294 52.2605 70.7254 52.6314C70.2347 52.9281 69.593 53.1135 68.8192 53.1321C68.102 53.1321 67.4981 52.9281 67.0829 52.5387C66.9885 52.446 66.8941 52.3532 66.7998 52.242C66.5167 51.8155 66.4034 51.2777 66.5167 50.6472V50.6287C66.611 50.0909 67.3471 48.1995 67.3471 48.1624C67.8189 46.9756 68.3663 45.5663 68.9513 44.0642C70.8953 39.1502 73.2734 33.0678 74.8021 29.2293C74.8399 29.118 74.8587 29.0068 74.8587 28.8955C74.8399 28.7472 74.7832 28.5988 74.67 28.5061C74.5568 28.4134 74.4058 28.3578 74.1982 28.3578H72.4429C72.2542 28.3578 72.0466 28.4134 71.8579 28.5061C71.5936 28.6359 71.3671 28.8399 71.235 29.081C71.2162 29.118 71.1784 29.1737 71.1595 29.2108C70.7066 30.3419 70.2159 31.6029 69.6874 32.938C69.1212 34.3844 68.5173 35.9236 67.8944 37.4627C65.4786 43.5821 63.0817 49.72 62.6853 50.7029C62.5532 51.0181 62.3834 51.3333 62.1758 51.6486C61.6096 52.446 60.7036 53.1135 59.2126 53.1135C58.6653 53.1135 58.1746 52.9837 57.7782 52.7612C57.5518 52.6128 57.3441 52.446 57.212 52.2234C57.1177 52.0751 57.0422 51.9267 56.9855 51.7598C56.8723 51.4261 56.8534 51.0366 56.9289 50.6101C57.0233 50.0909 57.5518 48.7372 57.6461 48.5332C57.6461 48.5147 57.665 48.4962 57.665 48.4962L61.2698 39.3727C61.4586 38.8905 61.1943 38.5011 60.6659 38.5011H58.9106C58.5898 38.5011 58.2501 38.6495 57.9858 38.872C57.967 38.872 57.967 38.8905 57.967 38.8905C57.816 39.0204 57.7027 39.1872 57.6461 39.3541L57.2875 40.2813L56.7213 41.7277C56.6081 41.5608 56.4948 41.3939 56.3816 41.227C56.2684 41.0602 56.1362 40.9118 56.0041 40.7635C55.4379 40.1144 54.7585 39.5581 54.0224 39.1316C52.7579 38.3899 51.2669 38.0005 49.6626 38.0005C45.7181 38.0005 41.9811 40.4482 40.1504 43.8973C39.6408 44.8616 39.2822 45.9 39.1124 46.9756C38.716 49.4975 39.3766 51.8896 40.962 53.6884C41.4527 54.2447 42 54.7268 42.6228 55.1162C42.7361 55.1904 42.8682 55.2646 43.0003 55.3388C44.2648 56.062 45.737 56.4514 47.3223 56.4514C49.8702 56.4514 52.3427 55.4129 54.2678 53.7626C54.3244 53.8738 54.3999 53.9851 54.4754 54.0963C54.5131 54.152 54.5697 54.2261 54.6075 54.2818C54.6075 54.3003 54.6264 54.3003 54.6264 54.3189C54.6641 54.3745 54.7207 54.4301 54.7585 54.4858C54.7962 54.5228 54.834 54.5599 54.8528 54.597C54.8717 54.6341 54.9095 54.6526 54.9472 54.6897C55.0038 54.7454 55.0605 54.801 55.0982 54.8566C55.1171 54.8752 55.1359 54.8937 55.1548 54.9123C55.2303 54.9679 55.2869 55.0421 55.3624 55.0977C55.3624 55.0977 55.3624 55.0977 55.3813 55.1162C56.023 55.654 56.8346 56.0805 57.7782 56.303C57.7971 56.303 57.816 56.3216 57.8349 56.3216C57.9292 56.3401 58.0236 56.3587 58.118 56.3772C58.1557 56.3772 58.1935 56.3957 58.2501 56.3957C58.3256 56.4143 58.4011 56.4143 58.4954 56.4328C58.5709 56.4328 58.6275 56.4514 58.703 56.4514C58.7597 56.4514 58.8163 56.4699 58.8918 56.4699C59.0239 56.4699 59.156 56.4885 59.307 56.4885C60.2884 56.4885 61.2132 56.303 62.0625 55.9507C62.3834 55.8209 62.6853 55.6725 62.9684 55.4871C63.0628 55.4315 63.1572 55.3758 63.2515 55.3017C63.629 55.0421 63.9876 54.7639 64.3085 54.4301C64.4217 54.5785 64.5538 54.7083 64.6859 54.8381C65.5541 55.7096 66.7243 56.2474 68.0643 56.4143C68.102 56.4143 68.1587 56.4328 68.1964 56.4328C68.2341 56.4328 68.2719 56.4328 68.3096 56.4328C68.3851 56.4328 68.4606 56.4514 68.5361 56.4514C68.5739 56.4514 68.6116 56.4514 68.6305 56.4514C68.706 56.4514 68.8004 56.4514 68.8758 56.4514C70.8387 56.4514 72.5751 55.7282 73.8584 54.4301C74.3492 55.0235 74.972 55.5057 75.6892 55.858C76.5007 56.2474 77.4255 56.4514 78.407 56.4514C78.9165 56.4514 79.4073 56.3957 79.8791 56.303C81.9363 55.8951 83.6349 54.6156 84.673 52.687C84.7296 52.7797 84.7862 52.8539 84.8428 52.9466C84.9183 53.0579 84.9938 53.1692 85.0693 53.2804C85.1825 53.4288 85.2958 53.5586 85.409 53.7069C86.9755 55.4871 89.2215 56.4699 91.7694 56.4699C95.2421 56.4699 98.5638 54.5599 100.546 51.7784C101.451 50.4989 102.074 49.0525 102.32 47.5133C102.376 47.1239 102.414 46.7345 102.433 46.3451C102.773 46.308 103.112 46.2524 103.433 46.1782C104.886 45.9 106.245 45.4365 107.453 44.806C107.416 44.8987 107.378 45.01 107.34 45.1027C106.774 46.5676 106.264 47.8286 106 48.5147C105.17 50.573 105.302 52.5758 106.377 54.1334C106.774 54.7083 107.283 55.1904 107.868 55.5613C108.812 56.1547 109.945 56.4885 111.19 56.4885C114.191 56.4885 116.664 54.801 117.834 51.9453C117.985 51.5744 118.287 50.7956 118.683 49.7757C119.513 47.6802 120.759 44.5278 121.891 41.6721C121.986 41.4125 122.099 41.1529 122.193 40.9118C123.175 42.1171 124.496 43.0258 125.779 43.5635C125.855 43.6006 125.912 43.6192 125.987 43.6563C126.138 43.7119 126.289 43.7675 126.421 43.8232C125.779 45.5292 124.76 48.2365 124.628 48.5332C124.119 49.8128 123.968 51.0552 124.194 52.1863C124.326 52.891 124.609 53.5586 125.006 54.152C125.27 54.5228 125.572 54.8566 125.912 55.1533C126.855 55.9507 128.082 56.4328 129.441 56.507C129.573 56.507 129.686 56.5256 129.818 56.5256C130.026 56.5256 130.234 56.507 130.441 56.4885C130.479 56.4885 130.536 56.4885 130.573 56.4699C130.592 56.4699 130.611 56.4699 130.63 56.4699C131.498 56.3772 132.329 56.1176 133.102 55.7467C133.895 55.3573 134.612 54.8381 135.216 54.2261C136.405 55.3758 137.934 56.1176 139.651 56.3957C140.123 56.4699 140.614 56.507 141.124 56.507C141.765 56.507 142.407 56.4328 143.03 56.3216C144.747 55.9878 146.37 55.1904 147.729 54.0963C147.861 54.0036 147.975 53.8924 148.088 53.7811C148.163 53.9109 148.239 54.0407 148.314 54.152C148.975 55.0977 149.919 55.7838 151.032 56.1732C151.089 56.1918 151.145 56.2103 151.183 56.2289C151.24 56.2474 151.315 56.2659 151.372 56.2845C151.447 56.303 151.504 56.3216 151.579 56.3401C151.636 56.3587 151.693 56.3587 151.749 56.3772C151.825 56.3957 151.881 56.4143 151.957 56.4143C152.014 56.4328 152.07 56.4328 152.127 56.4514C152.202 56.4699 152.259 56.4699 152.334 56.4699C152.41 56.4699 152.485 56.4885 152.561 56.4885C152.618 56.4885 152.674 56.507 152.731 56.507C152.863 56.507 152.995 56.5256 153.146 56.5256C156.147 56.5256 158.619 54.8381 159.789 51.9824C159.846 51.8155 160.941 49.1266 161.828 46.9014C162.092 46.2338 162.337 45.6033 162.526 45.1027C162.62 45.3067 162.734 45.5292 162.828 45.7332C163.187 46.4378 163.564 47.161 163.96 47.9028C164.281 48.4962 164.621 49.1081 164.923 49.72C165.848 51.5373 166.622 53.3917 166.622 55.209C166.622 60.5681 162.922 61.5138 161.79 61.6807C161.035 61.792 160.469 62.3668 160.356 63.0715C160.337 63.2384 160.318 63.4052 160.356 63.5721C160.356 63.6278 160.375 63.6834 160.393 63.7205C160.582 64.4622 161.262 65 162.035 65C162.073 65 162.111 65 162.167 65C162.205 65 162.243 65 162.3 65C163.187 64.8702 164.13 64.592 165.017 64.1655C167.641 62.7191 170 59.9005 170 55.0977ZM148.258 46.957C147.937 49.1452 146.521 51.0737 144.672 52.1678C144.653 52.1863 144.615 52.2049 144.596 52.2049C144.596 52.2049 144.577 52.2049 144.577 52.2234C143.596 52.7797 142.501 53.095 141.369 53.095C140.84 53.095 140.331 53.0208 139.859 52.8725C139.029 52.6128 138.293 52.1493 137.745 51.5002C137.198 50.8512 136.858 50.0538 136.726 49.1637V49.1452C136.651 48.6074 136.651 48.0511 136.745 47.4763C136.877 46.6232 137.16 45.8073 137.594 45.0656C138.16 44.0642 138.953 43.2112 139.878 42.5622C140.991 41.8019 142.294 41.3383 143.634 41.3383C144.54 41.3383 145.37 41.5423 146.068 41.9502C146.521 42.2099 146.918 42.5436 147.257 42.9331C147.427 43.137 147.578 43.341 147.692 43.5635C148.126 44.3053 148.333 45.1768 148.333 46.104C148.333 46.3822 148.314 46.6603 148.258 46.957ZM90.2218 52.9281C89.297 52.687 88.5043 52.2049 87.9192 51.4817C87.0321 50.4247 86.6735 48.9968 86.9 47.4577V47.4392C86.9566 47.0498 87.051 46.716 87.1454 46.4378C87.2775 46.104 87.4096 45.7517 87.5606 45.3994C87.5795 45.3437 87.6172 45.3066 87.6361 45.251C87.6927 45.1583 87.7305 45.0656 87.7871 44.9729C87.806 44.9358 87.8248 44.9172 87.8437 44.8801C88.2589 44.194 88.7685 43.5821 89.3536 43.0629C90.5992 41.9873 92.1657 41.3198 93.7888 41.3198C94.5249 41.3198 95.2232 41.4681 95.8272 41.7277C96.45 42.0059 96.9785 42.3953 97.4126 42.9145C98.2996 43.9715 98.6582 45.3994 98.4317 46.957C97.9221 50.332 94.8269 53.095 91.524 53.095C91.0711 53.095 90.637 53.0393 90.2218 52.9281ZM47.5111 53.095C46.0201 53.095 44.7367 52.5201 43.8685 51.5002C43.7741 51.389 43.6986 51.2777 43.6231 51.1664C42.9059 50.1465 42.6417 48.8485 42.8493 47.4577C43.3589 44.0828 46.473 41.3198 49.7948 41.3198C51.2858 41.3198 52.5692 41.8946 53.4373 42.9145C54.3244 43.9715 54.7019 45.3994 54.4565 46.957C54.4188 47.2166 54.3621 47.4763 54.2866 47.7359C53.4562 50.7399 50.5686 53.095 47.5111 53.095Z" fill="black"/>
</g>
<defs>
<clipPath id="clip0_1313_25174">
<rect width="210" height="89.9999" fill="white"/>
</clipPath>
</defs>
</svg>
