<svg width="210" height="90" viewBox="0 0 210 90" fill="none" xmlns="http://www.w3.org/2000/svg">
<g clip-path="url(#clip0_1348_23740)">
<path d="M26.0162 43.8791H32.2633V52.8178C32.2633 57.3345 29.9562 59.9297 25.6316 59.9297C21.3067 59.9297 19 57.3349 19 52.8178V38.1122C19 33.5948 21.3067 31 25.6316 31C29.9565 31 32.2633 33.5949 32.2633 38.1122V40.8996H28.0344V37.8242C28.0344 35.8064 27.1696 35.0376 25.7277 35.0376C24.2858 35.0376 23.4213 35.8064 23.4213 37.8242V53.106C23.4213 55.1242 24.2862 55.8937 25.7277 55.8937C27.1692 55.8937 28.0344 55.1241 28.0344 53.106V47.9158H26.0162V43.8791Z" fill="#231F20"/>
<path d="M38.7028 50.3191L33.1281 31.385H37.7415L41.1055 44.2641L44.4692 31.385H48.7941L43.1237 50.3191V59.7377H38.7028V50.3191Z" fill="#231F20"/>
<path d="M59.9432 51.472L63.0187 31.3849H69.1697V59.6416H64.9408V39.3625L61.8653 59.6411H57.6365L54.3688 39.6502V59.6411H50.5242V31.3846H56.6753L59.9432 51.472Z" fill="#231F20"/>
<path d="M78.3967 31.0004C82.7216 31.0004 84.9327 33.5953 84.9327 38.1127V38.9775H80.7031V37.8241C80.7031 35.8063 79.9343 35.0375 78.4924 35.0375C77.0509 35.0375 76.2821 35.8063 76.2821 37.8241C76.2821 43.6869 84.9324 44.7443 84.9324 52.8178C84.9324 57.3344 82.6252 59.9296 78.3004 59.9296C73.9754 59.9296 71.6687 57.3348 71.6687 52.8178V51.0873H75.8976V53.1059C75.8976 55.1237 76.7628 55.8933 78.2047 55.8933C79.6465 55.8933 80.511 55.1237 80.511 53.1059C80.511 47.2431 71.8611 46.1853 71.8611 38.1122C71.8611 33.5953 74.0714 31.0004 78.3967 31.0004Z" fill="#231F20"/>
<path d="M91.9479 59.6417H87.5273V31.385H91.9479V43.495H97.042V31.385H101.559V59.6417H97.042V47.5317H91.9479V59.6417Z" fill="#231F20"/>
<path d="M119.148 59.6417H114.63L113.861 54.5475H108.383L107.614 59.6417H103.578L108.095 31.385H114.63L119.148 59.6417ZM109.055 50.7033H113.381L111.266 36.3823L109.055 50.7033Z" fill="#231F20"/>
<path d="M130.489 59.6417C130.201 58.872 130.105 58.4886 130.105 56.1823V51.7609C130.105 49.1661 129.239 48.2056 127.221 48.2056H125.684V59.7388H121.263V31.3858H127.99C132.603 31.3858 134.622 33.5001 134.622 37.9218V40.1317C134.622 43.0152 133.66 44.9372 131.739 45.8989C133.948 46.8598 134.717 48.9752 134.717 51.9546V56.2791C134.717 57.625 134.717 58.6818 135.198 59.7388H130.488L130.489 59.6417H130.489ZM125.683 35.4214V44.0712H127.413C129.047 44.0712 130.105 43.302 130.105 41.0918V38.3044C130.105 36.2859 129.431 35.421 127.798 35.421L125.683 35.4216V35.4214Z" fill="#231F20"/>
<path d="M143.272 48.3964L141.926 50.9914V59.6411H137.505V31.3842H141.926V43.6862L147.789 31.3842H152.21L146.058 43.9747L152.21 59.6411H147.597L143.272 48.3964Z" fill="#231F20"/>
<path d="M155.094 31.481C167.396 31.481 179.699 31.481 192 31.481C192 31.481 175.084 50.319 166.531 59.6416C166.531 59.6416 167.204 58.2008 167.589 57.6238C167.204 57.6238 166.819 56.0862 166.339 55.3163C165.859 55.6051 165.377 55.7972 164.897 55.9893C164.417 56.2778 164.128 56.1822 163.84 55.6063C163.648 55.1253 163.456 54.5485 163.167 54.0684C162.687 54.2605 161.533 54.934 161.341 54.934L155.382 52.4344C155.478 52.4344 158.361 52.3392 159.61 52.4344L161.533 54.0692C162.013 53.5894 162.397 52.8201 162.782 52.4344H163.839C164.224 52.8193 164.608 53.4921 164.992 53.9723C165.473 53.4921 166.049 52.9154 166.434 52.5312H167.203C167.588 52.9154 168.068 53.492 168.453 53.8762C168.453 53.8762 168.549 53.8762 168.644 53.9723C168.644 53.9723 169.414 53.1075 169.701 52.7233H170.567C170.567 52.7233 181.427 36.3837 181.524 36.192C172.778 34.5565 155.094 31.481 155.094 31.481Z" fill="#231F20"/>
<path d="M165.858 41.1882L159.802 37.8241C163.358 38.6889 167.011 39.5542 170.567 40.3234L165.858 41.1882Z" fill="#231F20"/>
</g>
<defs>
<clipPath id="clip0_1348_23740">
<rect width="210" height="89.9999" fill="white"/>
</clipPath>
</defs>
</svg>
